<?xml version="1.0" encoding="UTF-8"?>
<svg version="1.1" xmlns="http://www.w3.org/2000/svg" viewBox="0 0 1024 1024">
  <path d="M0 0 C1.18021425 1.17855665 2.34917469 2.36836604 3.515625 3.56054688 C4.33804687 2.84769531 5.16046875 2.13484375 6.0078125 1.40039062 C37.69153909 -25.87711634 71.70989064 -37.01984489 113.515625 -34.43945312 C143.82876581 -31.56036661 170.64834206 -17.07029842 192.515625 3.56054688 C193.30324219 4.27210938 194.09085938 4.98367188 194.90234375 5.71679688 C223.95664305 33.04000266 236.45815368 72.92689465 238.69921875 111.74023438 C239.5183765 145.75937389 229.19863021 182.33931895 208.515625 209.56054688 C207.87109375 210.41261719 207.2265625 211.2646875 206.5625 212.14257812 C201.8335992 218.20264588 196.74474072 223.92992684 191.515625 229.56054688 C190.96519531 230.16511719 190.41476562 230.7696875 189.84765625 231.39257812 C167.13133876 255.34286841 133.48337501 267.88713665 100.98632812 268.84399414 C79.81019547 269.12103457 59.68532455 264.41568586 40.515625 255.56054688 C40.2578125 256.41648437 40 257.27242187 39.734375 258.15429688 C29.2574683 287.4359079 1.81483701 314.45849372 -22.484375 332.56054688 C-23.3491748 333.20854248 -23.3491748 333.20854248 -24.23144531 333.86962891 C-41.53464546 346.76153889 -67.1309493 365.56054688 -89.484375 365.56054688 C-90.64512737 367.88205161 -90.62055938 369.2540706 -90.64208984 371.83911133 C-90.65235199 372.72375565 -90.66261414 373.60839996 -90.67318726 374.51985168 C-90.68048859 375.47816391 -90.68778992 376.43647614 -90.6953125 377.42382812 C-90.72338376 379.44532056 -90.75204824 381.46680483 -90.78125 383.48828125 C-90.82250322 386.68123118 -90.85938311 389.87402908 -90.88574219 393.06713867 C-90.91336277 396.14469063 -90.95923861 399.22154507 -91.0078125 402.29882812 C-91.01106537 403.25106766 -91.01431824 404.20330719 -91.01766968 405.18440247 C-91.13014445 411.25472408 -91.93212955 414.81924621 -96.171875 419.37304688 C-99.56688927 421.11643258 -102.78956283 421.10411765 -106.484375 420.56054688 C-110.34301395 418.88287777 -111.92466415 417.41335292 -113.484375 413.56054688 C-113.72488403 411.37115479 -113.72488403 411.37115479 -113.71142578 408.97558594 C-113.71127472 408.07495422 -113.71112366 407.17432251 -113.71096802 406.24639893 C-113.69548416 404.80088654 -113.69548416 404.80088654 -113.6796875 403.32617188 C-113.6768576 402.33300964 -113.67402771 401.33984741 -113.67111206 400.31658936 C-113.65992643 397.14778543 -113.63482462 393.97926522 -113.609375 390.81054688 C-113.59934312 388.66081138 -113.59021763 386.51107144 -113.58203125 384.36132812 C-113.55999241 379.09430441 -113.52653084 373.82744592 -113.484375 368.56054688 C-114.144375 368.56054688 -114.804375 368.56054688 -115.484375 368.56054688 C-115.814375 367.90054687 -116.144375 367.24054688 -116.484375 366.56054688 C-118.256952 365.78711642 -118.256952 365.78711642 -120.4375 365.18554688 C-121.2737793 364.92805664 -122.11005859 364.67056641 -122.97167969 364.40527344 C-124.33921387 363.98713379 -124.33921387 363.98713379 -125.734375 363.56054688 C-152.89210939 354.8369277 -176.5982273 339.96028432 -197.33984375 320.49414062 C-199.33071187 318.52621124 -199.33071187 318.52621124 -201.484375 317.56054688 C-201.484375 316.90054687 -201.484375 316.24054688 -201.484375 315.56054688 C-202.05929687 315.32078125 -202.63421875 315.08101562 -203.2265625 314.83398438 C-207.87108844 312.21440746 -211.04914568 307.56202279 -214.484375 303.56054688 C-215.70060547 302.15675781 -215.70060547 302.15675781 -216.94140625 300.72460938 C-226.69581001 289.26510512 -234.89244546 277.23648319 -242.35546875 264.17773438 C-243.90287511 261.49045775 -245.53425293 258.98095562 -247.484375 256.56054688 C-248.71671875 257.03105469 -249.9490625 257.5015625 -251.21875 257.98632812 C-286.10906301 271.17441424 -321.95280664 272.7749404 -356.57177734 257.60668945 C-392.09580651 241.2826036 -418.95095767 209.93414602 -432.484375 173.56054688 C-438.56962729 156.18991762 -441.84900246 138.92678438 -442.484375 120.56054688 C-442.525625 119.66722656 -442.566875 118.77390625 -442.609375 117.85351562 C-443.60896523 78.18227818 -428.67114379 37.5666217 -401.43383789 8.67333984 C-400.11935745 7.3004842 -398.80195514 5.9304279 -397.484375 4.56054688 C-396.57365234 3.53767578 -396.57365234 3.53767578 -395.64453125 2.49414062 C-384.75957724 -9.32874593 -370.13086655 -18.11366496 -355.484375 -24.43945312 C-354.84854492 -24.71869629 -354.21271484 -24.99793945 -353.55761719 -25.28564453 C-322.02170035 -38.87760869 -286.1857198 -37.87448074 -254.484375 -25.43945312 C-239.30838481 -19.27830362 -226.04526024 -10.8351254 -213.65625 -0.15429688 C-211.50826679 1.74130478 -211.50826679 1.74130478 -208.484375 2.56054688 C-207.76894531 1.84253906 -207.05351562 1.12453125 -206.31640625 0.38476562 C-196.70009914 -9.20501374 -187.24701195 -16.67536365 -175.484375 -23.43945312 C-174.86691406 -23.80167969 -174.24945313 -24.16390625 -173.61328125 -24.53710938 C-117.04044527 -57.50751486 -46.24895003 -44.84931075 0 0 Z M-198.75195312 25.61230469 C-210.81956102 39.18326171 -219.77048439 55.21763147 -227.484375 71.56054688 C-227.79165527 72.17317383 -228.09893555 72.78580078 -228.41552734 73.41699219 C-230.42855116 77.63920985 -230.45983772 78.68323326 -229.484375 83.56054688 C-145.334375 83.56054688 -61.184375 83.56054688 25.515625 83.56054688 C20.45218076 53.17988146 -6.71536566 21.93005129 -31.02075195 4.47753906 C-51.35764655 -9.74529938 -73.41248846 -19.07731328 -98.484375 -20.43945312 C-99.23332031 -20.48070312 -99.98226562 -20.52195312 -100.75390625 -20.56445312 C-139.1032784 -21.58201524 -173.33359025 -1.70764723 -198.75195312 25.61230469 Z M24.515625 15.56054688 C23.30910644 16.56273568 22.10104377 17.56307214 20.890625 18.56054688 C19.715 19.55054688 19.715 19.55054688 18.515625 20.56054688 C20.17174135 25.60870876 23.15068084 29.6091326 26.140625 33.93554688 C59.50621107 83.26183494 69.18168904 144.8986153 58.265625 202.93554688 C56.14066489 213.7499892 53.15970527 224.16677842 49.515625 234.56054688 C76.89648302 247.04422074 105.96610202 250.11310477 134.68017578 239.78173828 C152.18850816 233.21460187 165.42890013 222.72970781 178.515625 209.56054688 C179.27101563 208.81417969 180.02640625 208.0678125 180.8046875 207.29882812 C204.05825782 183.15088972 215.08925741 148.58356972 215.890625 115.56054688 C215.31887089 90.01353384 208.44552833 65.57183842 195.515625 43.56054688 C194.94457031 42.58730469 194.37351562 41.6140625 193.78515625 40.61132812 C178.01158802 15.42070423 152.19377444 -2.61189015 123.45703125 -9.84960938 C88.19135928 -16.92147719 51.82934327 -8.23549556 24.515625 15.56054688 Z M-373.484375 13.56054688 C-374.27328125 14.21539062 -375.0621875 14.87023437 -375.875 15.54492188 C-400.62217791 36.86796196 -416.85906685 69.9714149 -419.35546875 102.58398438 C-421.1330104 143.62903713 -410.73571537 180.22182844 -382.87841797 211.06005859 C-365.38848845 229.88547135 -339.26871408 243.8831497 -313.45336914 245.78369141 C-291.71230688 246.57527236 -274.39519057 242.93909338 -254.484375 234.56054688 C-254.87109375 233.43261719 -255.2578125 232.3046875 -255.65625 231.14257812 C-259.68365611 219.09145946 -262.45526832 207.0968861 -264.484375 194.56054688 C-264.59765137 193.86977051 -264.71092773 193.17899414 -264.82763672 192.46728516 C-273.97808259 135.20833397 -260.51946755 75.61840825 -228.484375 27.56054688 C-227.18738224 25.86544648 -225.87595264 24.17890012 -224.484375 22.56054688 C-228.4331886 12.10217388 -246.61265552 3.31736597 -256.38427734 -1.34619141 C-296.11175903 -19.12467496 -339.82540033 -14.84667288 -373.484375 13.56054688 Z M-238.484375 106.56054688 C-247.93194719 130.17947734 -247.12031114 161.75563467 -243.484375 186.56054688 C-241.88459288 188.160329 -240.20789678 187.68596446 -237.99125671 187.68638802 C-236.52616905 187.69029964 -236.52616905 187.69029964 -235.03148365 187.69429028 C-233.40267781 187.6909442 -233.40267781 187.6909442 -231.7409668 187.68753052 C-230.59742328 187.68909051 -229.45387976 187.6906505 -228.2756834 187.69225776 C-225.08741985 187.6955709 -221.89919396 187.69435867 -218.7109313 187.69127154 C-215.27803941 187.68901922 -211.84515282 187.69249621 -208.41226196 187.69525146 C-201.6816416 187.69970996 -194.95103235 187.69873234 -188.22041154 187.69583882 C-182.75276488 187.6935851 -177.28512135 187.69327213 -171.81747437 187.69436264 C-171.04079743 187.69451587 -170.2641205 187.69466911 -169.4639079 187.69482698 C-167.88635516 187.69514669 -166.30880242 187.6954709 -164.73124969 187.69579957 C-149.92082344 187.6986546 -135.11040337 187.69536699 -120.29997814 187.68999921 C-107.57791202 187.68553115 -94.85585502 187.68630707 -82.13378906 187.69091797 C-67.37819805 187.69626334 -52.62261245 187.69837991 -37.86702061 187.69530571 C-36.29510562 187.69498714 -34.72319063 187.69467277 -33.15127563 187.69436264 C-31.99100287 187.69413123 -31.99100287 187.69413123 -30.80729026 187.69389514 C-25.34299158 187.69302987 -19.87869634 187.69449307 -14.41439819 187.69684219 C-7.75986829 187.69963998 -1.10535018 187.6989024 5.54917836 187.69356145 C8.94771299 187.69092414 12.34622791 187.68991987 15.74476242 187.6932106 C19.42060059 187.69591884 23.09638228 187.69254499 26.7722168 187.68753052 C27.85808736 187.68976124 28.94395792 187.69199196 30.06273365 187.69429028 C31.03945876 187.69168253 32.01618387 187.68907479 33.02250671 187.68638802 C34.29698433 187.68614449 34.29698433 187.68614449 35.59720898 187.68589604 C37.52425612 187.77174848 37.52425612 187.77174848 38.515625 186.56054688 C42.39381654 158.98858655 39.75294673 134.05648595 34.515625 106.56054688 C-55.574375 106.56054688 -145.664375 106.56054688 -238.484375 106.56054688 Z M-238.484375 209.56054688 C-237.03159581 216.82444283 -235.59086601 222.75581185 -232.984375 229.49804688 C-232.63761719 230.399021 -232.29085937 231.29999512 -231.93359375 232.22827148 C-214.13143132 277.20939789 -177.29860249 317.25770457 -132.70874023 336.66259766 C-125.47113342 339.66879956 -118.20771396 342.12155505 -110.484375 343.56054688 C-109.67097656 343.72554687 -108.85757813 343.89054688 -108.01953125 344.06054688 C-85.86611121 347.50743233 -59.87693943 331.58281814 -42.65307617 319.20776367 C-25.66112079 306.69824012 -10.23586954 292.1170581 2.33837891 275.14355469 C3.42470535 273.68280383 4.53740224 272.24176309 5.65234375 270.80273438 C15.63677552 257.6601621 22.77823873 242.83431129 28.703125 227.49804688 C29.07860474 226.54285156 29.07860474 226.54285156 29.46166992 225.56835938 C31.4930143 220.17159189 32.34557773 215.41078325 33.515625 209.56054688 C-56.244375 209.56054688 -146.004375 209.56054688 -238.484375 209.56054688 Z " fill="#FEA500" transform="translate(614.484375,431.439453125)"/>
  <path d="M0 0 C16.2385176 12.7728474 28.89741589 28.38606343 37.6328125 47.1171875 C38.91243126 49.99512613 38.91243126 49.99512613 40.9375 52.875 C41.52273438 52.63265625 42.10796875 52.3903125 42.7109375 52.140625 C55.17754786 47.27378011 68.55301496 44.31991363 81.9375 43.875 C82.88882813 43.8234375 83.84015625 43.771875 84.8203125 43.71875 C101.89001409 43.19487169 118.07003812 46.88837519 133.9375 52.875 C134.3396875 51.575625 134.3396875 51.575625 134.75 50.25 C144.79438918 21.70278865 168.6121256 0.92322905 194.9375 -12.125 C195.67613281 -12.50527344 196.41476562 -12.88554687 197.17578125 -13.27734375 C201.71919632 -15.46342151 206.57199155 -15.97359604 211.5 -16.75 C212.78487305 -16.97042969 212.78487305 -16.97042969 214.09570312 -17.1953125 C221.15918955 -18.30080925 228.2677051 -18.73053527 234.9375 -15.8125 C238.5158128 -12.79329858 238.86529089 -10.88319565 239.3125 -6.1875 C239.23017724 -3.02983402 238.90895344 -2.07810208 237.1875 0.75 C232.71389113 4.97507504 228.53315697 5.22533618 222.5625 5.6875 C202.38053235 7.61773662 185.30223637 17.68515942 172.25 33.125 C164.55179985 43.01272447 158.23666335 53.52855612 152.9375 64.875 C153.49050781 65.12121094 154.04351563 65.36742187 154.61328125 65.62109375 C176.05537031 77.18901071 192.65442077 103.02949905 199.56298828 125.95019531 C205.27012105 146.51080609 206.65309623 169.13291692 200.9375 189.875 C200.5971875 191.11765625 200.256875 192.3603125 199.90625 193.640625 C197.84267792 200.41694954 195.24330761 206.71517341 192 213 C191.68844971 213.61560791 191.37689941 214.23121582 191.0559082 214.86547852 C188.62850284 219.34241799 186.03211311 221.97644493 181.9375 224.875 C178.05380237 225.42008037 175.78090629 225.23919817 172.1875 223.6875 C169.52012003 221.53877724 168.27489838 220.04252249 166.9375 216.875 C166.29017802 209.99255366 167.99196959 205.88531411 171.1875 199.875 C181.76850938 178.70266434 183.82990562 154.89923846 176.8125 132.1875 C172.3936647 120.08429715 166.39561711 109.60272877 157.9375 99.875 C157.48246094 99.276875 157.02742187 98.67875 156.55859375 98.0625 C144.1915206 82.11451313 122.55282079 71.90181303 102.9375 68.875 C101.92623047 68.71064453 101.92623047 68.71064453 100.89453125 68.54296875 C77.12406445 65.29563722 52.1132742 70.75564531 32.4296875 84.64453125 C12.51053173 99.97416367 -1.22428146 120.22953624 -5.63671875 145.11328125 C-7.97846771 165.80231101 -5.59603831 185.8233326 4.34570312 204.28466797 C6.67289001 208.69001934 7.46019898 211.90635571 6.9375 216.875 C5.3093054 219.95693978 3.90740938 222.13920667 1.125 224.25 C-3.41840699 225.54811628 -6.82824758 225.52537479 -11.03515625 223.30859375 C-14.54577527 220.48650904 -16.26896677 217.56446666 -18.125 213.5625 C-18.46297607 212.85464355 -18.80095215 212.14678711 -19.14916992 211.41748047 C-32.37593566 183.03155924 -34.43538193 149.52950946 -23.765625 119.8984375 C-18.403559 106.74860897 -11.74946084 94.31113228 -2.0625 83.875 C-1.34578125 83.03066406 -0.6290625 82.18632812 0.109375 81.31640625 C5.42926283 75.11930288 11.25760601 69.6023096 17.9375 64.875 C18.5975 64.875 19.2575 64.875 19.9375 64.875 C7.85490919 40.66218214 -6.38705033 18.52680088 -33.0625 8.875 C-39.18454423 6.9322713 -45.02463554 5.79421063 -51.4375 5.4375 C-56.57119884 5.10824445 -59.22748263 4.30633133 -63.0625 0.875 C-65.28853003 -2.46404504 -65.90904881 -4.13526901 -66.0625 -8.125 C-64.65460584 -11.90071616 -63.67077998 -14.09160958 -60.28125 -16.26953125 C-41.01689419 -24.140602 -15.50775853 -11.02136603 0 0 Z " fill="#FEA500" transform="translate(425.0625,191.125)"/>
  <path d="M0 0 C3 1 3 1 3 1 Z " fill="#F8A000" transform="translate(272,400)"/>
  <path d="" fill="#F9A102" transform="translate(0,0)"/>
  <path d="M0 0 C2 1 2 1 2 1 Z " fill="#F9A100" transform="translate(585,200)"/>
  <path d="M0 0 C2 1 2 1 2 1 Z " fill="#EF9D00" transform="translate(398,176)"/>
  <path d="" fill="#5B5246" transform="translate(0,0)"/>
  <path d="" fill="#F9A301" transform="translate(0,0)"/>
  <path d="" fill="#F9A402" transform="translate(0,0)"/>
  <path d="" fill="#FBA200" transform="translate(0,0)"/>
  <path d="" fill="#FDA501" transform="translate(0,0)"/>
  <path d="" fill="#FDA600" transform="translate(0,0)"/>
  <path d="" fill="#FEA401" transform="translate(0,0)"/>
  <path d="" fill="#FDA401" transform="translate(0,0)"/>
  <path d="" fill="#FCA501" transform="translate(0,0)"/>
  <path d="" fill="#FBA300" transform="translate(0,0)"/>
  <path d="" fill="#FEA500" transform="translate(0,0)"/>
  <path d="" fill="#F9A202" transform="translate(0,0)"/>
  <path d="" fill="#FBA300" transform="translate(0,0)"/>
  <path d="" fill="#FBA400" transform="translate(0,0)"/>
  <path d="" fill="#FEA600" transform="translate(0,0)"/>
  <path d="" fill="#FDA100" transform="translate(0,0)"/>
  <path d="" fill="#FFA700" transform="translate(0,0)"/>
  <path d="" fill="#FDA600" transform="translate(0,0)"/>
  <path d="" fill="#FFA600" transform="translate(0,0)"/>
  <path d="" fill="#F7A203" transform="translate(0,0)"/>
  <path d="" fill="#F7A304" transform="translate(0,0)"/>
  <path d="" fill="#FEA700" transform="translate(0,0)"/>
  <path d="" fill="#FEA400" transform="translate(0,0)"/>
  <path d="" fill="#FFA500" transform="translate(0,0)"/>
  <path d="" fill="#FFA700" transform="translate(0,0)"/>
  <path d="" fill="#F1A104" transform="translate(0,0)"/>
  <path d="" fill="#FDA400" transform="translate(0,0)"/>
  <path d="" fill="#F9A403" transform="translate(0,0)"/>
  <path d="" fill="#FFA701" transform="translate(0,0)"/>
  <path d="" fill="#FDA500" transform="translate(0,0)"/>
  <path d="" fill="#FFA700" transform="translate(0,0)"/>
  <path d="" fill="#F6A201" transform="translate(0,0)"/>
  <path d="" fill="#F3A004" transform="translate(0,0)"/>
  <path d="" fill="#FFA600" transform="translate(0,0)"/>
  <path d="" fill="#FFA400" transform="translate(0,0)"/>
  <path d="" fill="#FFA300" transform="translate(0,0)"/>
  <path d="" fill="#FFA500" transform="translate(0,0)"/>
  <path d="" fill="#FFA600" transform="translate(0,0)"/>
  <path d="" fill="#FEA800" transform="translate(0,0)"/>
  <path d="" fill="#FDA700" transform="translate(0,0)"/>
  <path d="" fill="#FDA100" transform="translate(0,0)"/>
  <path d="" fill="#FFA600" transform="translate(0,0)"/>
  <path d="" fill="#FDA600" transform="translate(0,0)"/>
  <path d="" fill="#FCA400" transform="translate(0,0)"/>
  <path d="" fill="#FFA700" transform="translate(0,0)"/>
  <path d="" fill="#FFA500" transform="translate(0,0)"/>
  <path d="" fill="#FFA600" transform="translate(0,0)"/>
  <path d="" fill="#FDA100" transform="translate(0,0)"/>
  <path d="" fill="#FAA500" transform="translate(0,0)"/>
  <path d="" fill="#F9A000" transform="translate(0,0)"/>
  <path d="" fill="#EE9C04" transform="translate(0,0)"/>
  <path d="" fill="#F5A002" transform="translate(0,0)"/>
</svg>
